<?xml version="1.0" encoding="UTF-8" standalone="no"?>
<svg
   xmlns:dc="http://purl.org/dc/elements/1.1/"
   xmlns:cc="http://creativecommons.org/ns#"
   xmlns:rdf="http://www.w3.org/1999/02/22-rdf-syntax-ns#"
   xmlns:svg="http://www.w3.org/2000/svg"
   xmlns="http://www.w3.org/2000/svg"
   id="svg8"
   version="1.1"
   viewBox="0 0 27.516666 27.516668"
   height="104"
   width="104">
  <defs
     id="defs2" />
  <metadata
     id="metadata5">
    <rdf:RDF>
      <cc:Work
         rdf:about="">
        <dc:format>image/svg+xml</dc:format>
        <dc:type
           rdf:resource="http://purl.org/dc/dcmitype/StillImage" />
        <dc:title></dc:title>
      </cc:Work>
    </rdf:RDF>
  </metadata>
  <g
     transform="translate(0,-269.48332)"
     id="layer1">
    <path
       id="path899"
       transform="matrix(0.26458333,0,0,0.26458333,0,269.48332)"
       d="M 4 12.951172 L 4 100 L 47.525391 100 L 4 12.951172 z "
       style="fill:#cddc39;stroke:none;stroke-width:0.99999994;stroke-linecap:butt;stroke-linejoin:miter;stroke-miterlimit:4;stroke-dasharray:none;stroke-opacity:1" />
    <path
       id="path901"
       transform="matrix(0.26458333,0,0,0.26458333,0,269.48332)"
       d="M 9.6582031 4 L 52 46.34375 L 94.345703 4 L 9.6582031 4 z "
       style="fill:#ffc107;stroke:none;stroke-width:0.99999994px;stroke-linecap:butt;stroke-linejoin:miter;stroke-opacity:1" />
    <path
       id="path903"
       transform="matrix(0.26458333,0,0,0.26458333,0,269.48332)"
       d="M 100 4 L 54.828125 49.171875 L 69.886719 64.228516 L 100 4 z "
       style="fill:#8bc34a;stroke:none;stroke-width:0.99999994px;stroke-linecap:butt;stroke-linejoin:miter;stroke-opacity:1" />
    <path
       id="path905"
       transform="matrix(0.26458333,0,0,0.26458333,0,269.48332)"
       d="M 70.980469 70.980469 L 56.470703 100 L 100 100 L 70.980469 70.980469 z "
       style="fill:#9c27b0;stroke:none;stroke-width:0.99999994px;stroke-linecap:butt;stroke-linejoin:miter;stroke-opacity:1" />
    <path
       id="path907"
       transform="matrix(0.26458333,0,0,0.26458333,0,269.48332)"
       d="M 100 12.943359 L 72.867188 67.208984 L 100 94.341797 L 100 12.943359 z "
       style="fill:#03a9f4;stroke:none;stroke-width:0.99999994px;stroke-linecap:butt;stroke-linejoin:miter;stroke-opacity:1" />
    <path
       id="path909"
       d="m 1.0583333,270.54165 16.9333327,16.93334 -4.233333,8.46666 z"
       style="fill:#f44336;stroke:none;stroke-width:2.11666667;stroke-linecap:butt;stroke-linejoin:miter;stroke-opacity:1;stroke-miterlimit:4;stroke-dasharray:none" />
  </g>
</svg>
