<?xml version="1.0" encoding="UTF-8" standalone="no"?>
<svg
   xmlns:dc="http://purl.org/dc/elements/1.1/"
   xmlns:cc="http://creativecommons.org/ns#"
   xmlns:rdf="http://www.w3.org/1999/02/22-rdf-syntax-ns#"
   xmlns:svg="http://www.w3.org/2000/svg"
   xmlns="http://www.w3.org/2000/svg"
   id="svg8"
   version="1.1"
   viewBox="0 0 67.733331 67.733331"
   height="256"
   width="256">
  <defs
     id="defs2" />
  <metadata
     id="metadata5">
    <rdf:RDF>
      <cc:Work
         rdf:about="">
        <dc:format>image/svg+xml</dc:format>
        <dc:type
           rdf:resource="http://purl.org/dc/dcmitype/StillImage" />
        <dc:title></dc:title>
      </cc:Work>
    </rdf:RDF>
  </metadata>
  <g
     transform="translate(0,-229.26668)"
     id="layer1">
    <path
       id="path843"
       transform="matrix(0.26458333,0,0,0.26458333,0,229.26668)"
       d="M 22.587891 28.238281 L 128.00195 239.05859 L 163.13281 168.79102 L 22.587891 28.238281 z "
       style="fill:#ef5350;stroke:none;stroke-width:0.99999994px;stroke-linecap:butt;stroke-linejoin:miter;stroke-opacity:1" />
    <path
       id="path845"
       transform="matrix(0.26458333,0,0,0.26458333,0,229.26668)"
       d="M 17.658203 11.998047 L 128.00195 122.34375 L 238.3457 11.998047 L 17.658203 11.998047 z "
       style="fill:#ffd54f;stroke:none;stroke-width:0.99999994px;stroke-linecap:butt;stroke-linejoin:miter;stroke-opacity:1" />
    <path
       id="path847"
       transform="matrix(0.26458333,0,0,0.26458333,0,229.26668)"
       d="M 233.40039 28.253906 L 133.65625 127.99805 L 166.9043 161.24609 L 233.40039 28.253906 z "
       style="fill:#aed581;stroke:none;stroke-width:0.99999994px;stroke-linecap:butt;stroke-linejoin:miter;stroke-opacity:1" />
    <path
       id="path849"
       transform="matrix(0.26458333,0,0,0.26458333,0,229.26668)"
       d="M 169.09766 174.75586 L 134.46875 243.99609 L 238.3457 243.99609 L 169.09766 174.75586 z "
       style="fill:#ba68c8;stroke:none;stroke-width:0.99999994px;stroke-linecap:butt;stroke-linejoin:miter;stroke-opacity:1" />
    <path
       id="path851"
       transform="matrix(0.26458333,0,0,0.26458333,0,229.26668)"
       d="M 244.00195 24.939453 L 172.86914 167.21094 L 244.00195 238.3418 L 244.00195 24.939453 z "
       style="fill:#4fc3f7;stroke:none;stroke-width:0.99999994px;stroke-linecap:butt;stroke-linejoin:miter;stroke-opacity:1" />
    <path
       transform="matrix(0.26458333,0,0,0.26458333,0,229.26668)"
       id="path853"
       d="M 12.003906 24.955078 L 12.003906 243.99609 L 121.52148 243.99609 L 12.003906 24.955078 z "
       style="fill:#dce775;stroke:none;stroke-width:0.99999994px;stroke-linecap:butt;stroke-linejoin:miter;stroke-opacity:1" />
  </g>
</svg>
